<svg id="Layer_1" data-name="Layer 1" xmlns="http://www.w3.org/2000/svg" viewBox="0 0 288 288"><defs><style>.cls-1{fill:#5468b1;}</style></defs><path class="cls-1" d="M188.47,136c-1.82,2.41-5.48,4.68-4.48,8.25a8,8,0,0,0,1.76,2.83Q209,175,232.44,202.74q.06-52.58,0-105.16c0-2.23-.21-4.87-2.12-6a4.43,4.43,0,0,0-4.38.22c-1.73,1-10,10.82-11.25,12.28m2.49,76.66-.05,0a0,0,0,0,0,0,0Zm0,0-.06-.07h0A.19.19,0,0,0,217.19,180.76Z"/><path class="cls-1" d="M124.11,173c1.63-.43,3.08-1.91,4.23-3.28C145.64,149,201.67,82,205,78.07c1.08-1.31,2.23-2.8,2.07-4.49a4.38,4.38,0,0,0-2.94-3.41,12.85,12.85,0,0,0-4.67-.57H124.57a6.55,6.55,0,0,0-3.57.68c-1.83,1.16-2,3.7-2,5.87q0,40.47,0,80.94v8.59c0,2.93.6,6.67,3.46,7.32A3.33,3.33,0,0,0,124.11,173Zm-.76-1.77a.36.36,0,0,0,0,.11h-.27A1.67,1.67,0,0,1,123.35,171.18ZM200.17,70.82v-.09l.18.07Zm-33.46.72-.24-.09.26,0S166.72,71.51,166.71,71.54Z"/><path class="cls-1" d="M93,116.3c-1.83-1.54-3.68-1.68-5.54,0-1.73,1.25-28.82,34.64-29.64,35.24a5.51,5.51,0,0,0-2.3,4.77q0,28.77,0,57.53c0,3,1.64,4.74,4.64,4.87,1.69.07,3.39,0,5.08,0h10.2l14.27,0a6,6,0,0,0,1.36-.26,9.14,9.14,0,0,0,2.54-1.65,5.74,5.74,0,0,0,1.25-3.92q-.06-45.91,0-91.84C94.86,119.17,94.52,117.51,93,116.3ZM74.32,218.21l.16-.05,0,.05Z"/><path class="cls-1" d="M61.57,108c1.74-.51,2.63-2,3.65-3.27,6.36-8.24,26.39-31.43,28.65-34,.49-.55.75-1.08-.36-1.14-11-.68-22.11-.15-33.08,0-3,0-4.86,1.71-4.87,4.65q-.09,15,0,30C55.58,107.36,58.46,109.07,61.57,108Z"/><path class="cls-1" d="M173.41,169.7a31.52,31.52,0,0,0-3.89-3.86c-2.79-2.31-5-1.79-7.53,1.73-2.17,2.22-40.55,48-42.69,50.94,2.67,0,64.67.16,93,.16.36,0,1,.43,1.14-.44C211.89,216.24,177.22,174.13,173.41,169.7Zm-4.73-1.19s0,0,0,.06l0-.11S168.69,168.49,168.68,168.51ZM156,218.18h0s0,0,0,0,0,0,0,0Zm4.17,0Zm28.24,0h0a1.74,1.74,0,0,0,.11-.18l0,.18Z"/></svg>