<svg id="Layer_1" data-name="Layer 1" xmlns="http://www.w3.org/2000/svg" xmlns:xlink="http://www.w3.org/1999/xlink" viewBox="0 0 288 288"><defs><style>.cls-1{fill:url(#linear-gradient);}.cls-2{fill:url(#linear-gradient-2);}.cls-3{fill:url(#linear-gradient-3);}.cls-4{fill:url(#linear-gradient-4);}.cls-5{fill:url(#linear-gradient-5);}</style><linearGradient id="linear-gradient" x1="-87.25" y1="146.76" x2="326.12" y2="146.76" gradientUnits="userSpaceOnUse"><stop offset="0" stop-color="#30316d"/><stop offset="0.29" stop-color="#455194"/><stop offset="0.55" stop-color="#5468b1"/><stop offset="0.73" stop-color="#63c7df"/><stop offset="0.97" stop-color="#88d1cf"/></linearGradient><linearGradient id="linear-gradient-2" x1="43.43" y1="353.94" x2="196.7" y2="-3.09" xlink:href="#linear-gradient"/><linearGradient id="linear-gradient-3" x1="62.29" y1="165.68" x2="144.53" y2="165.68" xlink:href="#linear-gradient"/><linearGradient id="linear-gradient-4" x1="62.29" y1="91.67" x2="144.53" y2="91.67" xlink:href="#linear-gradient"/><linearGradient id="linear-gradient-5" x1="-87.25" y1="189.1" x2="326.12" y2="189.1" xlink:href="#linear-gradient"/></defs><path class="cls-1" d="M186.13,136.42c-1.73,2.28-5.19,4.44-4.24,7.81a7.7,7.7,0,0,0,1.66,2.69q22.06,26.4,44.24,52.73.06-49.82,0-99.63c0-2.11-.21-4.61-2-5.7a4.19,4.19,0,0,0-4.15.2c-1.64.94-9.49,10.26-10.66,11.64m2.36,72.63-.05,0v0Zm0,0-.06-.07h0S213.34,178.8,213.34,178.83Z"/><path class="cls-2" d="M125.16,171.43a8.92,8.92,0,0,0,4-3.11c16.4-19.57,69.48-83.06,72.59-86.79,1-1.23,2.12-2.65,2-4.25a4.17,4.17,0,0,0-2.79-3.23,12.41,12.41,0,0,0-4.43-.54H125.59a6.15,6.15,0,0,0-3.38.65c-1.73,1.1-1.91,3.51-1.92,5.55q0,38.35,0,76.69v8.15c0,2.77.57,6.31,3.27,6.93A3.37,3.37,0,0,0,125.16,171.43Zm-.73-1.67a.93.93,0,0,0,0,.1,2.25,2.25,0,0,0-.26,0A1.36,1.36,0,0,1,124.43,169.76Zm72.79-95.09a.27.27,0,0,1,0-.09l.16.07C197.32,74.64,197.28,74.67,197.22,74.67Zm-31.7.68a1.55,1.55,0,0,0-.23-.08l.24,0S165.52,75.32,165.52,75.35Z"/><path class="cls-3" d="M95.68,117.75c-1.73-1.45-3.48-1.59-5.24,0-1.65,1.18-27.31,32.82-28.09,33.38a5.24,5.24,0,0,0-2.17,4.52q0,27.25,0,54.51c0,2.86,1.55,4.49,4.4,4.61,1.6.07,3.21,0,4.81,0h9.66q6.76,0,13.52,0a5.8,5.8,0,0,0,1.29-.24,8.46,8.46,0,0,0,2.4-1.57,5.4,5.4,0,0,0,1.19-3.71q0-43.5,0-87A5.25,5.25,0,0,0,95.68,117.75ZM78,214.31l.14-.05.05.05Z"/><path class="cls-4" d="M65.91,109.86c1.64-.48,2.49-1.85,3.45-3.1,6-7.8,25-29.77,27.15-32.2.46-.53.7-1-.35-1.09-10.37-.64-20.94-.14-31.33,0-2.89,0-4.61,1.61-4.62,4.4q-.09,14.22,0,28.44C60.23,109.29,63,110.9,65.91,109.86Z"/><path class="cls-5" d="M171.86,168.35a29.59,29.59,0,0,0-3.68-3.66c-2.64-2.19-4.77-1.7-7.14,1.64-2,2.1-38.41,45.51-40.44,48.26,2.53,0,61.27.15,88.1.16.35,0,1,.4,1.09-.42C208.32,212.44,175.47,172.54,171.86,168.35Zm-4.47-1.13,0,.06,0-.11S167.39,167.2,167.39,167.22Zm-12,47.06h0v0l0,0Zm3.94,0Zm26.77,0h0c0-.06.06-.12.1-.17l0,.17Z"/></svg>