<svg id="Layer_1" data-name="Layer 1" xmlns="http://www.w3.org/2000/svg" viewBox="0 0 288 288"><defs><style>.cls-1{fill:#63c7df;}</style></defs><path class="cls-1" d="M173.2,138.74c-1.19,1.59-3.59,3.08-2.94,5.42a5.11,5.11,0,0,0,1.16,1.86q15.29,18.31,30.65,36.56,0-34.53,0-69.06c0-1.47-.14-3.2-1.39-4a2.91,2.91,0,0,0-2.88.14c-1.13.64-6.57,7.11-7.39,8.07m1.64,50.33,0,0h0Zm0,0,0,0h0S192.06,168.12,192.06,168.14Z"/><path class="cls-1" d="M130.94,163a6.18,6.18,0,0,0,2.78-2.15c11.36-13.56,48.15-57.57,50.31-60.16a4.28,4.28,0,0,0,1.36-2.94,2.88,2.88,0,0,0-1.93-2.24,8.56,8.56,0,0,0-3.07-.38H131.24a4.35,4.35,0,0,0-2.35.45c-1.19.77-1.32,2.44-1.32,3.86v58.79c0,1.92.39,4.38,2.27,4.81A2.19,2.19,0,0,0,130.94,163Zm-.5-1.16,0,.07h-.18ZM180.89,96s0,0,0-.07l.11.05Zm-22,.47-.15-.06h.16A.2.2,0,0,1,158.91,96.42Z"/><path class="cls-1" d="M110.51,125.81a2.51,2.51,0,0,0-3.64,0c-1.13.82-18.92,22.74-19.46,23.14a3.6,3.6,0,0,0-1.51,3.13q0,18.88,0,37.78A2.89,2.89,0,0,0,89,193c1.11,0,2.22,0,3.34,0H99l9.37,0a3.75,3.75,0,0,0,.89-.17,5.82,5.82,0,0,0,1.67-1.09,3.75,3.75,0,0,0,.82-2.57q0-30.15,0-60.31A3.62,3.62,0,0,0,110.51,125.81ZM98.24,192.73l.11,0,0,0Z"/><path class="cls-1" d="M89.87,120.34a5,5,0,0,0,2.39-2.15c4.18-5.41,17.34-20.63,18.82-22.32.33-.37.49-.71-.24-.76-7.18-.44-14.52-.09-21.72,0-2,0-3.19,1.12-3.2,3.05q-.06,9.85,0,19.71C85.94,119.94,87.83,121.06,89.87,120.34Z"/><path class="cls-1" d="M163.31,160.88a21.1,21.1,0,0,0-2.55-2.54c-1.83-1.51-3.3-1.17-4.95,1.14-1.42,1.46-26.62,31.54-28,33.45,1.75,0,42.47.1,61.07.11.24,0,.69.28.75-.3C188.58,191.44,165.81,163.78,163.31,160.88Zm-3.1-.78s0,0,0,0a.25.25,0,0,1,0-.07Zm-8.3,32.61h0a0,0,0,0,1,0,0v0Zm2.73,0Zm18.55,0h0l.07-.11s0,.07,0,.11Z"/></svg>